<?xml version="1.0" encoding="utf-8"?>
<!-- Generator: Adobe Illustrator 27.9.5, SVG Export Plug-In . SVG Version: 9.03 Build 54986)  -->
<svg version="1.1" xmlns="http://www.w3.org/2000/svg" xmlns:xlink="http://www.w3.org/1999/xlink" x="0px" y="0px"
	 viewBox="0 0 475.63 475.63" style="enable-background:new 0 0 475.63 475.63;" xml:space="preserve">
<style type="text/css">
	.st0{display:none;}
	.st1{display:inline;fill:#1C477A;}
	.st2{display:inline;fill:none;stroke:#000000;stroke-width:0.5;stroke-linecap:round;stroke-linejoin:round;}
	.st3{display:inline;fill:none;stroke:#FF0000;stroke-width:0.5;stroke-linecap:round;stroke-linejoin:round;}
	.st4{display:inline;fill:#FFFFFF;}
	.st5{display:inline;fill:none;stroke:#FFFFFF;stroke-miterlimit:10;}
	.st6{display:inline;}
	.st7{fill:#FFFFFF;}
	.st8{display:inline;fill:#FFFFFF;stroke:#1C477A;stroke-miterlimit:10;}
	.st9{fill:#1C477A;}
	.st10{display:inline;fill:none;stroke:#153D7C;stroke-miterlimit:10;}
</style>
<g id="Layer_4" class="st0">
	<rect x="636.07" class="st1" width="475.63" height="475.63"/>
</g>
<g id="_x33_D" class="st0">
	<rect x="704.9" y="87.76" class="st2" width="18.79" height="35.41"/>
	<rect x="705.29" y="125.92" class="st2" width="18.4" height="30.62"/>
	<line class="st2" x1="731.05" y1="84.72" x2="702.54" y2="84.72"/>
	<line class="st2" x1="702.54" y1="123.16" x2="731.05" y2="123.16"/>
	<line class="st2" x1="702.54" y1="84.72" x2="702.54" y2="123.16"/>
	<rect x="723.69" y="84.72" class="st2" width="7.36" height="37.98"/>
	<polygon class="st2" points="1057.6,291.22 1057.6,263.82 1057.6,257.61 1036.44,257.61 1036.44,263.82 1036.44,291.22 	"/>
	<polygon class="st2" points="883.75,190.38 731.05,190.38 731.05,196.59 876.39,224 883.75,224 	"/>
	<polygon class="st2" points="1057.6,224 883.75,224 883.75,230.2 1029.08,257.61 1057.6,257.61 	"/>
	<rect x="702.54" y="123.16" class="st2" width="28.52" height="33.61"/>
	<rect x="702.54" y="156.54" class="st2" width="28.52" height="33.61"/>
	<rect x="1029.08" y="291.22" class="st2" width="7.36" height="33.38"/>
	<rect x="1029.08" y="190.38" class="st2" width="7.36" height="33.15"/>
	<rect x="1029.08" y="123.16" class="st2" width="7.36" height="33.15"/>
	<rect x="876.39" y="257.61" class="st2" width="160.05" height="33.15"/>
	<rect x="723.69" y="224" class="st2" width="160.05" height="33.15"/>
	<rect x="876.39" y="156.77" class="st2" width="160.05" height="33.15"/>
	<rect x="723.69" y="123.16" class="st2" width="160.05" height="33.15"/>
	<rect x="723.69" y="190.38" class="st2" width="7.36" height="33.15"/>
	<rect x="723.69" y="257.61" class="st2" width="7.36" height="33.15"/>
	<rect x="723.69" y="291.22" class="st2" width="160.05" height="33.38"/>
	<rect x="876.39" y="84.72" class="st2" width="160.05" height="37.98"/>
	<line class="st3" x1="1036.44" y1="263.82" x2="1057.6" y2="263.82"/>
</g>
<g id="_x33_D::EXTERIOR::BEAMS" class="st0">
</g>
<g id="White_2" class="st0">
	<rect x="1022.08" y="116.72" class="st4" width="7.36" height="239.88"/>
	<rect x="716.69" y="222.15" class="st4" width="7.36" height="134.45"/>
	<rect x="720.37" y="323.22" class="st4" width="156.37" height="33.38"/>
	<rect x="869.39" y="116.72" class="st4" width="152.7" height="38.44"/>
	<rect x="724.05" y="155.16" class="st4" width="152.7" height="33.36"/>
	<rect x="869.39" y="188.53" class="st4" width="152.7" height="33.4"/>
	<rect x="724.05" y="256" class="st4" width="152.7" height="33.15"/>
	<rect x="869.39" y="289.15" class="st4" width="154" height="34.07"/>
	<polygon class="st4" points="724.05,221.92 876.75,221.92 876.75,256 866.67,256 723.59,228.59 	"/>
	<polygon class="st4" points="876.33,256 1050.6,256 1050.6,289.61 1021.35,289.61 876.33,262.28 	"/>
	<rect x="695.54" y="188.53" class="st4" width="28.52" height="33.63"/>
	<rect x="716.69" y="116.72" class="st4" width="7.36" height="76.99"/>
	<line class="st5" x1="716.69" y1="117.21" x2="869.39" y2="117.21"/>
	<line class="st5" x1="876.75" y1="356.11" x2="1022.08" y2="356.11"/>
</g>
<g id="white_3" class="st0">
	<g class="st6">
		<line class="st7" x1="877.1" y1="355.6" x2="1022.64" y2="355.6"/>
		<rect x="877.1" y="355.1" class="st7" width="145.54" height="1"/>
	</g>
	<rect x="1022.08" y="116.72" class="st8" width="7.36" height="239.88"/>
	<rect x="716.69" y="221.92" class="st8" width="7.36" height="134.68"/>
	<g class="st6">
		<rect x="716.69" y="323.22" class="st7" width="160.05" height="33.38"/>
		<path class="st9" d="M877.25,357.1H716.19v-34.38h161.05V357.1z M717.19,356.1h159.05v-32.38H717.19V356.1z"/>
	</g>
	<rect x="869.39" y="116.72" class="st8" width="160.05" height="38.44"/>
	<rect x="869.39" y="188.53" class="st8" width="160.05" height="33.4"/>
	<g class="st6">
		<rect x="716.69" y="256" class="st7" width="160.05" height="33.15"/>
		<path class="st9" d="M877.25,289.65H716.19V255.5h161.05V289.65z M717.19,288.65h159.05V256.5H717.19V288.65z"/>
	</g>
	<rect x="869.39" y="289.15" class="st8" width="160.05" height="34.07"/>
	<g class="st6">
		<polygon class="st7" points="724.05,221.92 876.39,221.92 876.39,256 864.67,256 724.05,228.68 		"/>
		<path class="st9" d="M877.25,256.5h-12.57l-141.12-27.4v-7.67h153.7V256.5z M724.55,228.27l140.22,27.23l11.48-0.01v-33.07h-151.7
			V228.27z"/>
	</g>
	<polygon class="st8" points="876.75,256 1050.6,256 1050.6,289.15 1021.35,289.15 876.75,262.28 	"/>
	<rect x="695.54" y="188.53" class="st8" width="28.52" height="33.4"/>
	<rect x="716.69" y="116.72" class="st4" width="7.36" height="71.8"/>
	<path class="st1" d="M724.55,189.03h-8.36v-72.81h8.36V189.03z M717.19,188.03h6.36v-70.81h-6.36V188.03z"/>
	<g class="st6">
		<line class="st7" x1="724.05" y1="117.72" x2="869.39" y2="117.72"/>
		<rect x="724.05" y="117.22" class="st7" width="145.34" height="0.99"/>
	</g>
	<rect x="716.69" y="155.16" class="st8" width="160.05" height="33.36"/>
</g>
<g id="White_4" class="st0">
	<rect x="718.19" y="123.22" class="st4" width="152.7" height="3"/>
	<rect x="876.96" y="357.1" class="st4" width="145.87" height="3"/>
	<g class="st6">
		<rect x="716.69" y="121.72" class="st7" width="7.36" height="76.99"/>
		<path class="st9" d="M725.55,200.21h-10.36v-79.99h10.36V200.21z M718.19,197.21h4.36v-73.99h-4.36V197.21z"/>
	</g>
	<g class="st6">
		<rect x="1022.08" y="121.72" class="st7" width="9.83" height="239.88"/>
		<path class="st9" d="M1033.41,363.1h-12.83V120.22h12.83V363.1z M1023.58,360.1h6.83V123.22h-6.83V360.1z"/>
	</g>
	<g class="st6">
		<rect x="715.46" y="121.72" class="st7" width="9.83" height="239.88"/>
		<path class="st9" d="M726.78,363.1h-12.83V120.22h12.83V363.1z M716.96,360.1h6.83V123.22h-6.83V360.1z"/>
	</g>
	<g class="st6">
		<rect x="869.39" y="121.72" class="st7" width="162.52" height="38.44"/>
		<path class="st9" d="M1033.41,161.66H867.89v-41.44h165.52V161.66z M870.89,158.66h159.52v-35.44H870.89V158.66z"/>
	</g>
	<g class="st6">
		<rect x="869.39" y="193.53" class="st7" width="162.52" height="33.4"/>
		<path class="st9" d="M1033.41,228.42H867.89v-36.4h165.52V228.42z M870.89,225.42h159.52v-30.4H870.89V225.42z"/>
	</g>
	<g class="st6">
		<rect x="869.39" y="294.15" class="st7" width="162.52" height="34.07"/>
		<path class="st9" d="M1033.41,329.72H867.89v-37.07h165.52V329.72z M870.89,326.72h159.52v-31.07H870.89V326.72z"/>
	</g>
	<g class="st6">
		<polygon class="st7" points="876.75,261 1050.6,261 1050.6,294.15 1021.35,294.15 876.75,267.28 		"/>
		<path class="st9" d="M1052.1,295.65l-31.02-0.03l-145.83-27.09v-9.03h176.85V295.65z M1021.49,292.65h27.61V262.5H878.25v3.54
			L1021.49,292.65z"/>
	</g>
	<g class="st6">
		<polygon class="st7" points="724.05,227.58 695.54,227.5 695.54,193.54 724.05,193.54 		"/>
		<path class="st9" d="M724.55,228.42l-30.45-0.21l0.93-35.19h29.52V228.42z M696.04,225.92h27.75v-30.9h-27.75V225.92z"/>
	</g>
	<g class="st6">
		<rect x="716.69" y="160.16" class="st7" width="160.05" height="33.36"/>
		<path class="st9" d="M878.25,195.03H715.19v-36.36h163.05V195.03z M716.96,192.03h158.24v-30.36H716.96V192.03z"/>
	</g>
	<g class="st6">
		<rect x="715.54" y="261" class="st7" width="161.12" height="33.15"/>
		<path class="st9" d="M878.25,295.65H713.96V259.5h164.29V295.65z M716.96,292.65l158.12,0V262.5l-158.12,0V292.65z"/>
	</g>
	<g class="st6">
		<polygon class="st7" points="724.05,226.92 876.75,226.92 876.75,261 866.67,261 724.05,233.68 		"/>
		<path class="st9" d="M878.25,262.5l-11.86-0.03l-142.6-27.19v-9.5l154.46-0.36V262.5z M866.81,259.5h8.43v-31.07H726.18v4.02
			L866.81,259.5z"/>
	</g>
	<g class="st6">
		<rect x="720.37" y="328.22" class="st7" width="156.37" height="33.38"/>
		<path class="st9" d="M878.25,363.1H712.87v-36.38h165.38V363.1z M716.96,360.1h158.29v-30.38H716.96V360.1z"/>
	</g>
</g>
<g id="white_1" class="st0">
	<rect x="1022.08" y="116.72" class="st4" width="7.36" height="239.88"/>
	<rect x="716.69" y="222.15" class="st4" width="7.36" height="134.45"/>
	<rect x="720.37" y="323.22" class="st4" width="156.37" height="33.38"/>
	<rect x="869.39" y="116.72" class="st4" width="152.7" height="38.44"/>
	<rect x="724.05" y="155.16" class="st4" width="152.7" height="33.36"/>
	<rect x="869.39" y="188.53" class="st4" width="152.7" height="33.4"/>
	<rect x="724.05" y="256" class="st4" width="152.7" height="33.15"/>
	<rect x="869.39" y="289.15" class="st4" width="154" height="34.07"/>
	<polygon class="st4" points="724.05,221.92 876.75,221.92 876.75,256 866.67,256 723.59,228.59 	"/>
	<polygon class="st4" points="876.33,256 1050.6,256 1050.6,289.61 1021.35,289.61 876.33,262.28 	"/>
	<rect x="698.29" y="155.16" class="st4" width="18.99" height="2.76"/>
	<rect x="1028.67" y="289.61" class="st4" width="21.93" height="33.77"/>
	<rect x="695.54" y="116.72" class="st4" width="28.52" height="105.43"/>
</g>
<g id="blue" class="st0">
	<line class="st10" x1="880.3" y1="288.6" x2="1062.17" y2="288.6"/>
	<line class="st10" x1="1029.93" y1="359.88" x2="1029.93" y2="288.6"/>
	<line class="st10" x1="868.4" y1="189.02" x2="694.65" y2="189.02"/>
	<line class="st10" x1="716.69" y1="154.65" x2="694.65" y2="154.65"/>
	<line class="st10" x1="716.69" y1="189.02" x2="716.69" y2="106.76"/>
</g>
<g id="BACKGROUND">
	<rect width="475.63" height="475.63"/>
</g>
<g id="ICON">
	<g>
		<rect x="78.6" y="147.66" class="st7" width="7" height="11.55"/>
		<polygon class="st7" points="334.69,126.22 88.49,126.22 88.49,123.22 350.92,123.22 		"/>
		<rect x="385.44" y="161.2" class="st7" width="7" height="30.98"/>
		<rect x="78.6" y="162.2" class="st7" width="157.92" height="29.98"/>
		<rect x="57.61" y="195.18" class="st7" width="27.99" height="30.98"/>
		<rect x="232.52" y="195.18" class="st7" width="159.92" height="29.98"/>
		<rect x="78.6" y="228.17" class="st7" width="7" height="30.98"/>
		<rect x="78.6" y="262.15" class="st7" width="157.92" height="29.98"/>
		<rect x="78.6" y="295.13" class="st7" width="7" height="31.98"/>
		<rect x="78.6" y="330.11" class="st7" width="157.92" height="29.98"/>
		<rect x="232.52" y="296.13" class="st7" width="159.92" height="30.98"/>
		<rect x="385.44" y="330.11" class="st7" width="7" height="29.98"/>
		<rect x="239.52" y="357.1" class="st7" width="142.93" height="3"/>
		<rect x="385.44" y="228.17" class="st7" width="7" height="30.98"/>
		<polygon class="st7" points="239.52,265.67 382.81,292.13 410.43,292.13 410.43,262.15 239.52,262.15 		"/>
		<polygon class="st7" points="87.6,232.17 228.1,259.15 236.52,259.15 236.52,228.17 87.6,228.17 		"/>
		<rect x="78.6" y="123.22" class="st7" width="7" height="21.65"/>
	</g>
	<polygon class="st7" points="232.52,147.66 364.82,123.22 392.44,123.22 392.44,158.2 232.52,158.2 	"/>
</g>
</svg>
