<svg width="218" height="43" viewBox="0 0 218 43" fill="none" xmlns="http://www.w3.org/2000/svg">
<path d="M59.5165 1.20324V8.1258H39.8421V11.9236H56.8926V18.8473H39.8421V22.9062H59.5165V29.9845H32.1291V1.20324H59.5165Z" fill="black"/>
<path d="M63.6205 1.20324H90.6395V8.1258H71.3324V12.5486H88.3317V19.4711H71.3324V29.9845H63.6205V1.20324Z" fill="black"/>
<path d="M102.456 1.17788V23.0371H121.605V29.9591H94.7438V1.17788H102.456Z" fill="black"/>
<path d="M1.16473 29.9846V1.2034H28.0262V8.12434H8.87666V29.9846H1.16473Z" fill="black"/>
<path d="M209.288 29.9846V8.12434H190.139V1.2034H217V29.9846H209.288Z" fill="black"/>
<path d="M152.238 1.17788V8.09937H133.246V11.8983H150.297V18.8208H133.246V22.8808H152.92V29.9591H125.535V1.17788H152.238Z" fill="black"/>
<path d="M181.378 12.0545C179.226 8.9325 176.708 7.26633 172.247 7.26633C167.107 7.26633 163.697 10.4927 163.697 15.5939C163.697 20.6422 167.212 23.9216 172.247 23.9216C176.655 23.9216 179.33 22.2565 181.324 19.1842L187.305 22.5154C184.367 27.9816 179.279 30.6879 172.354 30.6879C163.014 30.6879 156.037 24.9109 156.037 15.5939C156.037 6.32944 163.172 0.5 172.354 0.5C179.383 0.5 184.367 3.25875 187.358 8.67246L181.378 12.0545Z" fill="black"/>
<path d="M4.48704 40.3566L3.45711 37.3697L2.41193 40.3566H4.48704ZM4.69739 40.9523H2.20158L1.70297 42.3763H1L2.97376 36.8815H3.95682L5.93875 42.3763H5.19001L4.69739 40.9523Z" fill="black"/>
<path d="M8.46551 39.7674H10.1118C10.4752 39.7674 10.7706 39.6744 10.9973 39.4895C11.224 39.3041 11.3357 39.043 11.3357 38.7084V38.5386C11.3357 38.2023 11.224 37.9428 10.9973 37.7558C10.7706 37.5704 10.4752 37.4774 10.1118 37.4774H8.46551V39.7674ZM10.0883 40.3648H8.46551V42.3764H7.76309V36.8805H10.2365C10.5897 36.8805 10.9046 36.9568 11.1804 37.1054C11.4561 37.2557 11.6703 37.4622 11.8234 37.7255C11.9771 37.9883 12.0539 38.2883 12.0539 38.6229C12.0539 39.0251 11.9427 39.3728 11.7188 39.6642C11.4948 39.9555 11.1929 40.1529 10.8142 40.2561L12.2337 42.3764H11.4305L10.0883 40.3648Z" fill="black"/>
<path d="M15.0377 42.1399C14.6443 41.9005 14.3473 41.5637 14.144 41.1306C13.9418 40.6965 13.8399 40.1959 13.8399 39.6288C13.8399 39.0622 13.9418 38.5616 14.144 38.1275C14.3473 37.6945 14.6443 37.3577 15.0377 37.1182C15.4301 36.8776 15.9031 36.7581 16.454 36.7581C16.9221 36.7581 17.3379 36.8436 17.7019 37.0128C18.0665 37.1836 18.3596 37.4263 18.5831 37.7399C18.8065 38.0556 18.9471 38.4243 19.0048 38.8476H18.2866C18.1934 38.3935 17.9891 38.0302 17.6746 37.7599C17.3597 37.4896 16.9531 37.3534 16.454 37.3534C16.0584 37.3534 15.72 37.4426 15.4388 37.621C15.1587 37.7994 14.944 38.0453 14.7957 38.36C14.647 38.6746 14.5734 39.0325 14.5734 39.4358V39.8234C14.5734 40.2246 14.647 40.5835 14.7957 40.8982C14.944 41.2128 15.1603 41.4599 15.4437 41.6383C15.7265 41.8145 16.0638 41.9042 16.454 41.9042C16.969 41.9042 17.3842 41.761 17.7019 41.4755C18.0185 41.1896 18.219 40.8052 18.3024 40.3262H19.0201C18.9672 40.7641 18.831 41.1474 18.6065 41.4755C18.3831 41.8021 18.0882 42.0556 17.7221 42.2329C17.3548 42.4113 16.9319 42.5 16.454 42.5C15.9031 42.5 15.4301 42.3794 15.0377 42.1399Z" fill="black"/>
<path d="M25.3846 36.8817V42.3765H24.6816V39.9313H21.7487V42.3765H21.0469V36.8817H21.7487V39.3355H24.6816V36.8817H25.3846Z" fill="black"/>
<path d="M27.7763 36.8815H28.4788V42.3763H27.7763V36.8815Z" fill="black"/>
<path d="M32.2543 37.4772H30.3585V36.8814H34.8667V37.4772H32.9567V42.3767H32.2543V37.4772Z" fill="black"/>
<path d="M37.4264 37.4772V39.3358H40.484V39.931H37.4264V41.781H40.6475V42.3767H36.7234V36.8814H40.6475V37.4772H37.4264Z" fill="black"/>
<path d="M43.5489 42.1399C43.156 41.9005 42.8585 41.5637 42.6546 41.1306C42.453 40.6965 42.3517 40.1959 42.3517 39.6288C42.3517 39.0622 42.453 38.5616 42.6546 38.1275C42.8585 37.6945 43.156 37.3577 43.5489 37.1182C43.9412 36.8776 44.4137 36.7581 44.9635 36.7581C45.4327 36.7581 45.8496 36.8436 46.2136 37.0128C46.5776 37.1836 46.8708 37.4263 47.0948 37.7399C47.3182 38.0556 47.4588 38.4243 47.516 38.8476H46.7983C46.7046 38.3935 46.4997 38.0302 46.1864 37.7599C45.8709 37.4896 45.4632 37.3534 44.9635 37.3534C44.569 37.3534 44.2311 37.4426 43.9494 37.621C43.6699 37.7994 43.4552 38.0453 43.3064 38.36C43.1587 38.6746 43.0841 39.0325 43.0841 39.4358V39.8234C43.0841 40.2246 43.1587 40.5835 43.3064 40.8982C43.4552 41.2128 43.671 41.4599 43.9543 41.6383C44.2382 41.8145 44.5745 41.9042 44.9635 41.9042C45.4807 41.9042 45.8954 41.761 46.2136 41.4755C46.5302 41.1896 46.7302 40.8052 46.8141 40.3262H47.5313C47.4779 40.7641 47.3411 41.1474 47.1177 41.4755C46.8942 41.8021 46.5994 42.0556 46.2327 42.2329C45.866 42.4113 45.4436 42.5 44.9635 42.5C44.4137 42.5 43.9412 42.3794 43.5489 42.1399Z" fill="black"/>
<path d="M50.8161 37.4772H48.9192V36.8814H53.428V37.4772H51.5175V42.3767H50.8161V37.4772Z" fill="black"/>
<path d="M55.5662 41.9932C55.1837 41.6553 54.9897 41.2001 54.9848 40.627H55.7014C55.7183 40.9984 55.8551 41.305 56.1155 41.5455C56.376 41.784 56.7765 41.9045 57.3166 41.9045C58.2942 41.9045 58.7835 41.571 58.7835 40.9065V40.8433C58.7835 40.5951 58.6936 40.4059 58.5138 40.2751C58.3345 40.1432 58.0353 40.0313 57.6141 39.9383L56.7395 39.7453C56.3335 39.6577 56.0158 39.5572 55.7837 39.4431C55.5526 39.3301 55.3804 39.1836 55.2698 39.002C55.1575 38.8225 55.1014 38.5868 55.1014 38.2975C55.1014 37.9937 55.1881 37.725 55.3592 37.4931C55.5303 37.2606 55.7728 37.0812 56.0856 36.9514C56.3967 36.8227 56.7504 36.7579 57.1449 36.7579C57.6348 36.7579 58.0435 36.8298 58.3737 36.9747C58.7045 37.119 58.9503 37.3136 59.111 37.5585C59.2729 37.8034 59.3579 38.0759 59.3693 38.3759H58.6429C58.6015 38.0813 58.4609 37.8375 58.2217 37.6439C57.983 37.4499 57.6163 37.3536 57.122 37.3536C56.6845 37.3536 56.3559 37.4401 56.1352 37.6131C55.9139 37.7856 55.8038 38.0007 55.8038 38.2597V38.3208C55.8038 38.5424 55.8899 38.7149 56.0605 38.836C56.2327 38.9565 56.5182 39.062 56.9193 39.1495L57.7934 39.3431C58.395 39.4761 58.8288 39.6577 59.092 39.8848C59.3541 40.1118 59.4854 40.4443 59.4854 40.8833C59.4854 41.4028 59.299 41.8029 58.9241 42.0829C58.5492 42.3608 58.0114 42.4997 57.31 42.4997C56.5297 42.4997 55.9477 42.3311 55.5662 41.9932Z" fill="black"/>
<path d="M59.5165 1.20324V8.1258H39.8421V11.9236H56.8926V18.8473H39.8421V22.9062H59.5165V29.9845H32.1291V1.20324H59.5165Z" stroke="#231F20" stroke-miterlimit="10"/>
<path d="M63.6205 1.20324H90.6395V8.1258H71.3324V12.5486H88.3317V19.4711H71.3324V29.9845H63.6205V1.20324Z" stroke="#231F20" stroke-miterlimit="10"/>
<path d="M102.456 1.17788V23.0371H121.605V29.9591H94.7438V1.17788H102.456Z" stroke="#231F20" stroke-miterlimit="10"/>
<path d="M1.16473 29.9846V1.2034H28.0262V8.12434H8.87666V29.9846H1.16473Z" stroke="#231F20" stroke-miterlimit="10"/>
<path d="M209.288 29.9846V8.12434H190.139V1.2034H217V29.9846H209.288Z" stroke="#231F20" stroke-miterlimit="10"/>
<path d="M152.238 1.17788V8.09937H133.246V11.8983H150.297V18.8208H133.246V22.8808H152.92V29.9591H125.535V1.17788H152.238Z" stroke="#231F20" stroke-miterlimit="10"/>
<path d="M181.378 12.0545C179.226 8.9325 176.708 7.26633 172.247 7.26633C167.107 7.26633 163.697 10.4927 163.697 15.5939C163.697 20.6422 167.212 23.9216 172.247 23.9216C176.655 23.9216 179.33 22.2565 181.324 19.1842L187.305 22.5154C184.367 27.9816 179.279 30.6879 172.354 30.6879C163.014 30.6879 156.037 24.9109 156.037 15.5939C156.037 6.32944 163.172 0.5 172.354 0.5C179.383 0.5 184.367 3.25875 187.358 8.67246L181.378 12.0545Z" stroke="#231F20" stroke-miterlimit="10"/>
<path d="M4.48704 40.3566L3.45711 37.3697L2.41193 40.3566H4.48704ZM4.69739 40.9523H2.20158L1.70297 42.3763H1L2.97376 36.8815H3.95682L5.93875 42.3763H5.19001L4.69739 40.9523Z" stroke="#231F20" stroke-miterlimit="10"/>
<path d="M8.46551 39.7674H10.1118C10.4752 39.7674 10.7706 39.6744 10.9973 39.4895C11.224 39.3041 11.3357 39.043 11.3357 38.7084V38.5386C11.3357 38.2023 11.224 37.9428 10.9973 37.7558C10.7706 37.5704 10.4752 37.4774 10.1118 37.4774H8.46551V39.7674ZM10.0883 40.3648H8.46551V42.3764H7.76309V36.8805H10.2365C10.5897 36.8805 10.9046 36.9568 11.1804 37.1054C11.4561 37.2557 11.6703 37.4622 11.8234 37.7255C11.9771 37.9883 12.0539 38.2883 12.0539 38.6229C12.0539 39.0251 11.9427 39.3728 11.7188 39.6642C11.4948 39.9555 11.1929 40.1529 10.8142 40.2561L12.2337 42.3764H11.4305L10.0883 40.3648Z" stroke="#231F20" stroke-miterlimit="10"/>
<path d="M15.0377 42.1399C14.6443 41.9005 14.3473 41.5637 14.144 41.1306C13.9418 40.6965 13.8399 40.1959 13.8399 39.6288C13.8399 39.0622 13.9418 38.5616 14.144 38.1275C14.3473 37.6945 14.6443 37.3577 15.0377 37.1182C15.4301 36.8776 15.9031 36.7581 16.454 36.7581C16.9221 36.7581 17.3379 36.8436 17.7019 37.0128C18.0665 37.1836 18.3596 37.4263 18.5831 37.7399C18.8065 38.0556 18.9471 38.4243 19.0048 38.8476H18.2866C18.1934 38.3935 17.9891 38.0302 17.6746 37.7599C17.3597 37.4896 16.9531 37.3534 16.454 37.3534C16.0584 37.3534 15.72 37.4426 15.4388 37.621C15.1587 37.7994 14.944 38.0453 14.7957 38.36C14.647 38.6746 14.5734 39.0325 14.5734 39.4358V39.8234C14.5734 40.2246 14.647 40.5835 14.7957 40.8982C14.944 41.2128 15.1603 41.4599 15.4437 41.6383C15.7265 41.8145 16.0638 41.9042 16.454 41.9042C16.969 41.9042 17.3842 41.761 17.7019 41.4755C18.0185 41.1896 18.219 40.8052 18.3024 40.3262H19.0201C18.9672 40.7641 18.831 41.1474 18.6065 41.4755C18.3831 41.8021 18.0882 42.0556 17.7221 42.2329C17.3548 42.4113 16.9319 42.5 16.454 42.5C15.9031 42.5 15.4301 42.3794 15.0377 42.1399Z" stroke="#231F20" stroke-miterlimit="10"/>
<path d="M25.3846 36.8817V42.3765H24.6816V39.9313H21.7487V42.3765H21.0469V36.8817H21.7487V39.3355H24.6816V36.8817H25.3846Z" stroke="#231F20" stroke-miterlimit="10"/>
<path d="M27.7763 36.8815H28.4788V42.3763H27.7763V36.8815Z" stroke="#231F20" stroke-miterlimit="10"/>
<path d="M32.2543 37.4772H30.3585V36.8814H34.8667V37.4772H32.9567V42.3767H32.2543V37.4772Z" stroke="#231F20" stroke-miterlimit="10"/>
<path d="M37.4264 37.4772V39.3358H40.484V39.931H37.4264V41.781H40.6475V42.3767H36.7234V36.8814H40.6475V37.4772H37.4264Z" stroke="#231F20" stroke-miterlimit="10"/>
<path d="M43.5489 42.1399C43.156 41.9005 42.8585 41.5637 42.6546 41.1306C42.453 40.6965 42.3517 40.1959 42.3517 39.6288C42.3517 39.0622 42.453 38.5616 42.6546 38.1275C42.8585 37.6945 43.156 37.3577 43.5489 37.1182C43.9412 36.8776 44.4137 36.7581 44.9635 36.7581C45.4327 36.7581 45.8496 36.8436 46.2136 37.0128C46.5776 37.1836 46.8708 37.4263 47.0948 37.7399C47.3182 38.0556 47.4588 38.4243 47.516 38.8476H46.7983C46.7046 38.3935 46.4997 38.0302 46.1864 37.7599C45.8709 37.4896 45.4632 37.3534 44.9635 37.3534C44.569 37.3534 44.2311 37.4426 43.9494 37.621C43.6699 37.7994 43.4552 38.0453 43.3064 38.36C43.1587 38.6746 43.0841 39.0325 43.0841 39.4358V39.8234C43.0841 40.2246 43.1587 40.5835 43.3064 40.8982C43.4552 41.2128 43.671 41.4599 43.9543 41.6383C44.2382 41.8145 44.5745 41.9042 44.9635 41.9042C45.4807 41.9042 45.8954 41.761 46.2136 41.4755C46.5302 41.1896 46.7302 40.8052 46.8141 40.3262H47.5313C47.4779 40.7641 47.3411 41.1474 47.1177 41.4755C46.8942 41.8021 46.5994 42.0556 46.2327 42.2329C45.866 42.4113 45.4436 42.5 44.9635 42.5C44.4137 42.5 43.9412 42.3794 43.5489 42.1399Z" stroke="#231F20" stroke-miterlimit="10"/>
<path d="M50.8161 37.4772H48.9192V36.8814H53.428V37.4772H51.5175V42.3767H50.8161V37.4772Z" stroke="#231F20" stroke-miterlimit="10"/>
<path d="M55.5662 41.9932C55.1837 41.6553 54.9897 41.2001 54.9848 40.627H55.7014C55.7183 40.9984 55.8551 41.305 56.1155 41.5455C56.376 41.784 56.7765 41.9045 57.3166 41.9045C58.2942 41.9045 58.7835 41.571 58.7835 40.9065V40.8433C58.7835 40.5951 58.6936 40.4059 58.5138 40.2751C58.3345 40.1432 58.0353 40.0313 57.6141 39.9383L56.7395 39.7453C56.3335 39.6577 56.0158 39.5572 55.7837 39.4431C55.5526 39.3301 55.3804 39.1836 55.2698 39.002C55.1575 38.8225 55.1014 38.5868 55.1014 38.2975C55.1014 37.9937 55.1881 37.725 55.3592 37.4931C55.5303 37.2606 55.7728 37.0812 56.0856 36.9514C56.3967 36.8227 56.7504 36.7579 57.1449 36.7579C57.6348 36.7579 58.0435 36.8298 58.3737 36.9747C58.7045 37.119 58.9503 37.3136 59.111 37.5585C59.2729 37.8034 59.3579 38.0759 59.3693 38.3759H58.6429C58.6015 38.0813 58.4609 37.8375 58.2217 37.6439C57.983 37.4499 57.6163 37.3536 57.122 37.3536C56.6845 37.3536 56.3559 37.4401 56.1352 37.6131C55.9139 37.7856 55.8038 38.0007 55.8038 38.2597V38.3208C55.8038 38.5424 55.8899 38.7149 56.0605 38.836C56.2327 38.9565 56.5182 39.062 56.9193 39.1495L57.7934 39.3431C58.395 39.4761 58.8288 39.6577 59.092 39.8848C59.3541 40.1118 59.4854 40.4443 59.4854 40.8833C59.4854 41.4028 59.299 41.8029 58.9241 42.0829C58.5492 42.3608 58.0114 42.4997 57.31 42.4997C56.5297 42.4997 55.9477 42.3311 55.5662 41.9932Z" stroke="#231F20" stroke-miterlimit="10"/>
</svg>
